<?xml version="1.0" encoding="UTF-8"?>
<!DOCTYPE svg PUBLIC "-//W3C//DTD SVG 1.1//EN" "http://www.w3.org/Graphics/SVG/1.1/DTD/svg11.dtd">
<svg xmlns="http://www.w3.org/2000/svg" version="1.1" width="512px" height="512px" style="shape-rendering:geometricPrecision; text-rendering:geometricPrecision; image-rendering:optimizeQuality; fill-rule:evenodd; clip-rule:evenodd" xmlns:xlink="http://www.w3.org/1999/xlink">
<g><path style="opacity:0.966" fill="#272726" d="M 319.5,107.5 C 320.635,109.213 322.302,109.88 324.5,109.5C 339.51,112.692 351.844,120.192 361.5,132C 397.585,138.416 420.752,159.25 431,194.5C 432.98,201.714 434.313,209.047 435,216.5C 472.496,242.84 488.162,278.84 482,324.5C 479.618,337.816 474.785,350.15 467.5,361.5C 477.316,361.358 486.982,362.191 496.5,364C 506.988,368.42 510.821,376.254 508,387.5C 504.729,397.39 497.896,402.89 487.5,404C 472.789,404.183 458.122,404.683 443.5,405.5C 399.16,404.365 354.994,404.365 311,405.5C 292.893,404.742 274.726,404.075 256.5,403.5C 253.5,402.167 250.5,402.167 247.5,403.5C 201.116,403.967 154.616,404.967 108,406.5C 91.3354,405.817 74.6688,405.15 58,404.5C 55.7746,404.565 53.6079,404.898 51.5,405.5C 46.9344,403.978 42.2678,402.978 37.5,402.5C 34.4824,402.296 31.4824,401.963 28.5,401.5C 19.1462,400.501 10.4795,397.668 2.5,393C 1.60064,391.348 0.60064,389.848 -0.5,388.5C -0.5,386.833 -0.5,385.167 -0.5,383.5C 1.45124,380.214 3.78457,377.214 6.5,374.5C 12.1938,370.916 17.1938,367.25 21.5,363.5C 14.6501,336.735 20.9834,313.735 40.5,294.5C 42.9095,293.299 44.9095,291.633 46.5,289.5C 51.3351,284.91 57.0018,281.577 63.5,279.5C 67.168,278.444 70.8347,277.278 74.5,276C 75.056,275.617 75.3893,275.117 75.5,274.5C 77.3156,259.204 83.6489,246.204 94.5,235.5C 95.8333,234.833 96.8333,233.833 97.5,232.5C 100.366,229.479 103.7,226.979 107.5,225C 110.309,223.259 113.309,222.092 116.5,221.5C 119.034,221.741 120.7,220.741 121.5,218.5C 122.148,178.879 140.815,151.879 177.5,137.5C 179.965,137.233 182.299,136.566 184.5,135.5C 189.365,134.124 194.365,133.29 199.5,133C 218.224,115.601 239.557,111.434 263.5,120.5C 263.811,121.478 264.478,122.145 265.5,122.5C 271.23,118.306 277.23,114.639 283.5,111.5C 295.193,107.887 307.193,106.553 319.5,107.5 Z M 309.5,113.5 C 284.763,128.225 259.763,142.558 234.5,156.5C 250.833,144.5 267.167,132.5 283.5,120.5C 291.611,116.13 300.278,113.797 309.5,113.5 Z M 323.5,117.5 C 324.167,117.5 324.5,117.833 324.5,118.5C 319.498,122.003 314.165,125.003 308.5,127.5C 313.291,123.932 318.291,120.598 323.5,117.5 Z M 247.5,124.5 C 249.75,125.13 251.75,126.13 253.5,127.5C 240.833,134.5 228.167,141.5 215.5,148.5C 225.86,140.147 236.527,132.147 247.5,124.5 Z M 335.5,124.5 C 336.167,124.5 336.5,124.833 336.5,125.5C 334.95,126.441 333.284,127.107 331.5,127.5C 332.436,126.026 333.77,125.026 335.5,124.5 Z M 308.5,127.5 C 308.027,128.906 307.027,129.573 305.5,129.5C 305.973,128.094 306.973,127.427 308.5,127.5 Z M 331.5,127.5 C 331.027,128.906 330.027,129.573 328.5,129.5C 328.973,128.094 329.973,127.427 331.5,127.5 Z M 343.5,133.5 C 344.167,133.833 344.833,134.167 345.5,134.5C 338.095,139.226 330.428,143.559 322.5,147.5C 328.947,142.102 335.947,137.436 343.5,133.5 Z M 200.5,139.5 C 191.098,145.558 181.431,151.224 171.5,156.5C 176.806,151.86 181.806,146.86 186.5,141.5C 191.183,140.926 195.85,140.26 200.5,139.5 Z M 355.5,140.5 C 357.099,140.232 358.432,140.566 359.5,141.5C 349.833,147.669 339.833,153.336 329.5,158.5C 337.868,152.143 346.535,146.143 355.5,140.5 Z M 383.5,150.5 C 384.5,150.833 385.167,151.5 385.5,152.5C 377.659,157.923 369.326,162.59 360.5,166.5C 367.955,160.933 375.621,155.599 383.5,150.5 Z M 234.5,156.5 C 234.027,157.906 233.027,158.573 231.5,158.5C 231.973,157.094 232.973,156.427 234.5,156.5 Z M 329.5,158.5 C 329.027,159.906 328.027,160.573 326.5,160.5C 326.973,159.094 327.973,158.427 329.5,158.5 Z M 394.5,159.5 C 395.833,160.167 396.833,161.167 397.5,162.5C 383.166,171.336 368.5,179.669 353.5,187.5C 366.956,177.932 380.623,168.599 394.5,159.5 Z M 360.5,166.5 C 360.027,167.906 359.027,168.573 357.5,168.5C 357.973,167.094 358.973,166.427 360.5,166.5 Z M 404.5,170.5 C 405.5,170.833 406.167,171.5 406.5,172.5C 401.167,175.167 395.833,177.833 390.5,180.5C 394.865,176.811 399.531,173.478 404.5,170.5 Z M 159.5,175.5 C 159.027,176.906 158.027,177.573 156.5,177.5C 156.973,176.094 157.973,175.427 159.5,175.5 Z M 156.5,177.5 C 150.709,182.896 144.376,187.563 137.5,191.5C 137.629,189.784 137.962,188.117 138.5,186.5C 144.5,183.5 150.5,180.5 156.5,177.5 Z M 390.5,180.5 C 390.027,181.906 389.027,182.573 387.5,182.5C 387.973,181.094 388.973,180.427 390.5,180.5 Z M 179.5,181.5 C 165.065,192.891 150.065,203.558 134.5,213.5C 134.5,211.167 134.5,208.833 134.5,206.5C 149.339,197.913 164.339,189.58 179.5,181.5 Z M 411.5,181.5 C 411.833,182.167 412.167,182.833 412.5,183.5C 405.403,187.93 398.069,191.93 390.5,195.5C 396.976,190.092 403.976,185.425 411.5,181.5 Z M 353.5,187.5 C 353.027,188.906 352.027,189.573 350.5,189.5C 350.973,188.094 351.973,187.427 353.5,187.5 Z M 416.5,193.5 C 417.038,195.117 417.371,196.784 417.5,198.5C 405.167,205.167 392.833,211.833 380.5,218.5C 392.114,209.686 404.114,201.353 416.5,193.5 Z M 157.5,213.5 C 156.335,215.416 154.668,216.249 152.5,216C 153.91,214.628 155.577,213.795 157.5,213.5 Z M 380.5,218.5 C 380.027,219.906 379.027,220.573 377.5,220.5C 377.973,219.094 378.973,218.427 380.5,218.5 Z M 420.5,220.5 C 421.167,220.5 421.5,220.833 421.5,221.5C 418.76,223.56 415.76,225.226 412.5,226.5C 414.86,224.147 417.527,222.147 420.5,220.5 Z M 190.5,221.5 C 190.027,222.906 189.027,223.573 187.5,223.5C 187.973,222.094 188.973,221.427 190.5,221.5 Z M 187.5,223.5 C 181.464,228.191 175.131,232.525 168.5,236.5C 133.002,258.326 97.0016,279.326 60.5,299.5C 66.1667,293.5 71.8333,287.5 77.5,281.5C 80.4804,280.734 83.4804,279.901 86.5,279C 88.1554,277.556 88.822,275.722 88.5,273.5C 108.996,262.086 129.33,250.419 149.5,238.5C 151.836,240.391 154.502,240.891 157.5,240C 167.394,234.222 177.394,228.722 187.5,223.5 Z M 121.5,232.5 C 122.96,230.537 124.627,228.704 126.5,227C 128.074,226.301 129.407,226.635 130.5,228C 127.589,229.761 124.589,231.261 121.5,232.5 Z M 431.5,228.5 C 432.833,229.167 433.833,230.167 434.5,231.5C 423.633,237.766 412.633,243.766 401.5,249.5C 410.942,241.729 420.942,234.729 431.5,228.5 Z M 442.5,238.5 C 443.833,240.167 445.167,241.833 446.5,243.5C 431.661,252.087 416.661,260.42 401.5,268.5C 414.951,258.268 428.618,248.268 442.5,238.5 Z M 401.5,249.5 C 401.027,250.906 400.027,251.573 398.5,251.5C 398.973,250.094 399.973,249.427 401.5,249.5 Z M 452.5,251.5 C 453.401,252.29 454.068,253.29 454.5,254.5C 447.403,258.93 440.069,262.93 432.5,266.5C 439.167,261.5 445.833,256.5 452.5,251.5 Z M 432.5,266.5 C 432.027,267.906 431.027,268.573 429.5,268.5C 429.973,267.094 430.973,266.427 432.5,266.5 Z M 468.5,294.5 C 469.451,295.919 469.784,297.585 469.5,299.5C 460.833,304.167 452.167,308.833 443.5,313.5C 451.544,306.79 459.877,300.457 468.5,294.5 Z M 154.5,320.5 C 154.5,320.833 154.5,321.167 154.5,321.5C 133.833,335.167 113.167,348.833 92.5,362.5C 88.9827,362.213 85.3161,362.213 81.5,362.5C 105.662,348.251 129.996,334.251 154.5,320.5 Z M 41.5,334.5 C 40.3406,336.25 38.674,337.25 36.5,337.5C 37.6594,335.75 39.326,334.75 41.5,334.5 Z M 36.5,337.5 C 35.5637,338.974 34.2303,339.974 32.5,340.5C 32.5,339.833 32.5,339.167 32.5,338.5C 33.8333,338.167 35.1667,337.833 36.5,337.5 Z M 292.5,341.5 C 292.027,342.906 291.027,343.573 289.5,343.5C 289.973,342.094 290.973,341.427 292.5,341.5 Z M 260.5,342.5 C 251.557,349.645 242.223,356.312 232.5,362.5C 230.585,362.784 228.919,362.451 227.5,361.5C 238.329,354.917 249.329,348.584 260.5,342.5 Z M 67.5,343.5 C 66.3406,345.25 64.674,346.25 62.5,346.5C 63.6594,344.75 65.326,343.75 67.5,343.5 Z M 289.5,343.5 C 281.346,350.076 273.013,356.409 264.5,362.5C 261.833,362.5 259.167,362.5 256.5,362.5C 267.002,355.412 278.002,349.079 289.5,343.5 Z M 462.5,345.5 C 462.5,346.167 462.5,346.833 462.5,347.5C 461.609,348.11 460.609,348.443 459.5,348.5C 460.167,347.167 461.167,346.167 462.5,345.5 Z M 62.5,346.5 C 54.7949,352.192 46.7949,357.526 38.5,362.5C 37.209,362.737 36.209,362.404 35.5,361.5C 44.2622,356.071 53.2622,351.071 62.5,346.5 Z M 439.5,352.5 C 436.5,355.833 433.5,359.167 430.5,362.5C 427.938,361.629 425.272,361.629 422.5,362.5C 427.994,358.918 433.661,355.585 439.5,352.5 Z M 130.5,353.5 C 129.341,355.25 127.674,356.25 125.5,356.5C 126.659,354.75 128.326,353.75 130.5,353.5 Z M 214.5,354.5 C 214.027,355.906 213.027,356.573 211.5,356.5C 211.973,355.094 212.973,354.427 214.5,354.5 Z M 151.5,355.5 C 148.681,358.075 145.681,360.408 142.5,362.5C 141.5,362.5 140.5,362.5 139.5,362.5C 143.164,359.665 147.164,357.332 151.5,355.5 Z M 125.5,356.5 C 123.14,358.853 120.473,360.853 117.5,362.5C 116.5,362.5 115.5,362.5 114.5,362.5C 117.678,359.742 121.345,357.742 125.5,356.5 Z M 211.5,356.5 C 209.14,358.853 206.473,360.853 203.5,362.5C 202.5,362.5 201.5,362.5 200.5,362.5C 203.678,359.742 207.345,357.742 211.5,356.5 Z M 411.5,368.5 C 412.167,368.5 412.833,368.5 413.5,368.5C 407.666,372.921 401.332,376.588 394.5,379.5C 395.167,378.5 395.833,377.5 396.5,376.5C 401.632,374.1 406.632,371.434 411.5,368.5 Z M 67.5,369.5 C 70.1667,369.5 72.8333,369.5 75.5,369.5C 68.0947,374.226 60.428,378.559 52.5,382.5C 53.5,380.5 54.5,378.5 55.5,376.5C 59.8362,374.668 63.8362,372.335 67.5,369.5 Z M 125.5,369.5 C 126.167,369.5 126.833,369.5 127.5,369.5C 126.341,371.25 124.674,372.25 122.5,372.5C 123.306,371.272 124.306,370.272 125.5,369.5 Z M 462.5,369.5 C 463.959,369.433 465.292,369.766 466.5,370.5C 463.669,372.417 460.669,374.083 457.5,375.5C 459.167,373.5 460.833,371.5 462.5,369.5 Z M 377.5,372.5 C 373.167,375.669 368.5,378.336 363.5,380.5C 365.252,378.754 366.585,376.754 367.5,374.5C 370.423,373.705 373.09,372.372 375.5,370.5C 376.522,370.855 377.189,371.522 377.5,372.5 Z M 251.5,372.5 C 251.5,374.167 251.5,375.833 251.5,377.5C 249.483,378.529 247.483,379.529 245.5,380.5C 247.122,377.545 249.122,374.878 251.5,372.5 Z M 27.5,373.5 C 28.4013,374.29 29.0679,375.29 29.5,376.5C 28.1007,377.89 26.4341,378.89 24.5,379.5C 24.9925,377.181 25.9925,375.181 27.5,373.5 Z M 120.5,373.5 C 119.341,375.25 117.674,376.25 115.5,376.5C 116.659,374.75 118.326,373.75 120.5,373.5 Z M 143.5,373.5 C 144.404,374.209 144.737,375.209 144.5,376.5C 142.833,377.167 141.167,377.833 139.5,378.5C 140.833,376.833 142.167,375.167 143.5,373.5 Z M 312.5,376.5 C 310.219,377.608 308.052,378.942 306,380.5C 305.333,379.833 305.333,379.167 306,378.5C 307.376,377.295 308.542,375.962 309.5,374.5C 310.496,374.586 311.329,374.252 312,373.5C 312.483,374.448 312.649,375.448 312.5,376.5 Z M 113.5,377.5 C 110.529,380.149 107.196,381.982 103.5,383C 104.71,381.961 105.71,380.794 106.5,379.5C 108.921,379.122 111.254,378.455 113.5,377.5 Z M 495.5,379.5 C 496.11,380.391 496.443,381.391 496.5,382.5C 491.482,384.795 491.148,383.795 495.5,379.5 Z M 82.5,396.5 C 78.4338,396.693 74.4338,396.36 70.5,395.5C 77.0197,391.651 83.5197,387.651 90,383.5C 87.8285,387.883 85.3285,392.216 82.5,396.5 Z M 37.5,384.5 C 35.7481,387.672 33.7481,390.672 31.5,393.5C 28.1667,393.5 24.8333,393.5 21.5,393.5C 26.5016,389.997 31.835,386.997 37.5,384.5 Z M 405.5,385.5 C 402.833,389.167 400.167,392.833 397.5,396.5C 393.833,396.5 390.167,396.5 386.5,396.5C 392.57,392.442 398.903,388.775 405.5,385.5 Z M 226.5,386.5 C 223.5,390.5 220.5,394.5 217.5,398.5C 213.5,398.5 209.5,398.5 205.5,398.5C 212.004,393.745 219.004,389.745 226.5,386.5 Z M 256.5,386.5 C 253.848,390.482 250.848,394.149 247.5,397.5C 243.566,398.36 239.566,398.693 235.5,398.5C 242.329,394.251 249.329,390.251 256.5,386.5 Z M 277.5,397.5 C 274.167,397.5 270.833,397.5 267.5,397.5C 273.436,393.859 279.436,390.192 285.5,386.5C 285.833,386.667 286.167,386.833 286.5,387C 282.915,390.078 279.915,393.578 277.5,397.5 Z M 315.5,386.5 C 312.122,389.876 309.122,393.543 306.5,397.5C 303.167,397.5 299.833,397.5 296.5,397.5C 302.662,393.584 308.995,389.917 315.5,386.5 Z M 344.5,386.5 C 342.192,389.815 339.859,393.149 337.5,396.5C 334.167,396.5 330.833,396.5 327.5,396.5C 332.994,392.918 338.661,389.585 344.5,386.5 Z M 471.5,396.5 C 467.833,396.5 464.167,396.5 460.5,396.5C 466.143,392.513 472.143,389.347 478.5,387C 475.949,390.044 473.616,393.211 471.5,396.5 Z M 136.5,397.5 C 133.5,397.5 130.5,397.5 127.5,397.5C 133.143,393.513 139.143,390.347 145.5,388C 142.268,391.062 139.268,394.229 136.5,397.5 Z M 373.5,387.5 C 371.408,390.681 369.075,393.681 366.5,396.5C 363.5,396.5 360.5,396.5 357.5,396.5C 362.502,392.997 367.835,389.997 373.5,387.5 Z M 108.5,397.5 C 105.833,397.5 103.167,397.5 100.5,397.5C 105.475,393.847 110.809,391.014 116.5,389C 113.629,391.703 110.962,394.536 108.5,397.5 Z M 170.5,389.5 C 167.785,392.214 165.451,395.214 163.5,398.5C 160.5,398.5 157.5,398.5 154.5,398.5C 159.502,394.997 164.835,391.997 170.5,389.5 Z M 193.5,391.5 C 190.974,393.418 188.974,395.751 187.5,398.5C 185.5,398.5 183.5,398.5 181.5,398.5C 185.164,395.665 189.164,393.332 193.5,391.5 Z M 426.5,391.5 C 425.167,393.167 423.833,394.833 422.5,396.5C 420.833,396.5 419.167,396.5 417.5,396.5C 420.008,394.076 423.008,392.41 426.5,391.5 Z"/></g>
<g><path style="opacity:0.388" fill="#5c8a48" d="M 319.5,107.5 C 321.698,107.12 323.365,107.787 324.5,109.5C 322.302,109.88 320.635,109.213 319.5,107.5 Z"/></g>
<g><path style="opacity:0.968" fill="#79b655" d="M 309.5,113.5 C 314.659,113.446 319.325,114.779 323.5,117.5C 318.291,120.598 313.291,123.932 308.5,127.5C 314.165,125.003 319.498,122.003 324.5,118.5C 328.933,119.214 332.6,121.214 335.5,124.5C 333.77,125.026 332.436,126.026 331.5,127.5C 333.284,127.107 334.95,126.441 336.5,125.5C 340.274,126.938 342.607,129.605 343.5,133.5C 335.947,137.436 328.947,142.102 322.5,147.5C 330.428,143.559 338.095,139.226 345.5,134.5C 348.614,137.049 351.947,139.049 355.5,140.5C 346.535,146.143 337.868,152.143 329.5,158.5C 339.833,153.336 349.833,147.669 359.5,141.5C 368.413,142.299 376.413,145.299 383.5,150.5C 375.621,155.599 367.955,160.933 360.5,166.5C 369.326,162.59 377.659,157.923 385.5,152.5C 389.837,153.163 392.837,155.496 394.5,159.5C 380.623,168.599 366.956,177.932 353.5,187.5C 368.5,179.669 383.166,171.336 397.5,162.5C 401.236,163.905 403.569,166.571 404.5,170.5C 399.531,173.478 394.865,176.811 390.5,180.5C 395.833,177.833 401.167,175.167 406.5,172.5C 409.405,174.756 411.072,177.756 411.5,181.5C 403.976,185.425 396.976,190.092 390.5,195.5C 398.069,191.93 405.403,187.93 412.5,183.5C 414.897,186.309 416.23,189.642 416.5,193.5C 404.114,201.353 392.114,209.686 380.5,218.5C 392.833,211.833 405.167,205.167 417.5,198.5C 418.222,198.918 418.722,199.584 419,200.5C 419.497,203.146 419.664,205.813 419.5,208.5C 418.167,208.833 418.167,209.167 419.5,209.5C 419.244,213.269 419.577,216.936 420.5,220.5C 417.527,222.147 414.86,224.147 412.5,226.5C 415.76,225.226 418.76,223.56 421.5,221.5C 425.542,222.851 428.875,225.185 431.5,228.5C 420.942,234.729 410.942,241.729 401.5,249.5C 412.633,243.766 423.633,237.766 434.5,231.5C 437.764,233.094 440.431,235.427 442.5,238.5C 428.618,248.268 414.951,258.268 401.5,268.5C 416.661,260.42 431.661,252.087 446.5,243.5C 449.59,245.268 451.59,247.935 452.5,251.5C 445.833,256.5 439.167,261.5 432.5,266.5C 440.069,262.93 447.403,258.93 454.5,254.5C 457.389,257.256 459.556,260.589 461,264.5C 463.742,269.891 465.575,275.558 466.5,281.5C 466.062,281.435 465.728,281.601 465.5,282C 466.667,282.5 467.5,283.333 468,284.5C 469.199,287.885 469.366,291.218 468.5,294.5C 459.877,300.457 451.544,306.79 443.5,313.5C 452.167,308.833 460.833,304.167 469.5,299.5C 471.272,315.118 469.272,330.118 463.5,344.5C 462.833,344.5 462.5,344.833 462.5,345.5C 461.167,346.167 460.167,347.167 459.5,348.5C 460.609,348.443 461.609,348.11 462.5,347.5C 460.497,353.005 457.831,358.172 454.5,363C 446.323,363.823 438.323,363.656 430.5,362.5C 433.5,359.167 436.5,355.833 439.5,352.5C 433.661,355.585 427.994,358.918 422.5,362.5C 416.225,363.418 409.892,363.751 403.5,363.5C 412.286,327.348 401.619,298.514 371.5,277C 365.502,273.5 359.169,270.833 352.5,269C 347.972,264.104 345.472,258.27 345,251.5C 340.324,241.157 333.158,232.99 323.5,227C 314.599,222.089 305.265,218.256 295.5,215.5C 279.67,186.915 255.336,174.081 222.5,177C 195.071,180.029 175.404,193.862 163.5,218.5C 159.187,219.032 154.854,218.699 150.5,217.5C 144.923,217.144 139.59,216.144 134.5,214.5C 134.5,214.167 134.5,213.833 134.5,213.5C 150.065,203.558 165.065,192.891 179.5,181.5C 164.339,189.58 149.339,197.913 134.5,206.5C 133.867,201.072 134.867,196.072 137.5,191.5C 144.376,187.563 150.709,182.896 156.5,177.5C 150.5,180.5 144.5,183.5 138.5,186.5C 145.259,167.568 157.592,153.402 175.5,144C 179.014,142.438 182.681,141.605 186.5,141.5C 181.806,146.86 176.806,151.86 171.5,156.5C 181.431,151.224 191.098,145.558 200.5,139.5C 206.823,138.159 212.156,135.159 216.5,130.5C 217.492,130.672 218.158,130.338 218.5,129.5C 219.167,129.5 219.5,129.167 219.5,128.5C 220.492,128.672 221.158,128.338 221.5,127.5C 222.492,127.672 223.158,127.338 223.5,126.5C 224.492,126.672 225.158,126.338 225.5,125.5C 231.842,122.639 238.508,121.805 245.5,123C 246.416,123.278 247.082,123.778 247.5,124.5C 236.527,132.147 225.86,140.147 215.5,148.5C 228.167,141.5 240.833,134.5 253.5,127.5C 256.319,129.097 259.319,129.597 262.5,129C 269.748,126.707 276.748,123.874 283.5,120.5C 267.167,132.5 250.833,144.5 234.5,156.5C 259.763,142.558 284.763,128.225 309.5,113.5 Z M 247.5,124.5 C 249.75,125.13 251.75,126.13 253.5,127.5C 240.833,134.5 228.167,141.5 215.5,148.5C 225.86,140.147 236.527,132.147 247.5,124.5 Z M 308.5,127.5 C 308.027,128.906 307.027,129.573 305.5,129.5C 305.973,128.094 306.973,127.427 308.5,127.5 Z M 331.5,127.5 C 331.027,128.906 330.027,129.573 328.5,129.5C 328.973,128.094 329.973,127.427 331.5,127.5 Z M 234.5,156.5 C 234.027,157.906 233.027,158.573 231.5,158.5C 231.973,157.094 232.973,156.427 234.5,156.5 Z M 329.5,158.5 C 329.027,159.906 328.027,160.573 326.5,160.5C 326.973,159.094 327.973,158.427 329.5,158.5 Z M 360.5,166.5 C 360.027,167.906 359.027,168.573 357.5,168.5C 357.973,167.094 358.973,166.427 360.5,166.5 Z M 159.5,175.5 C 159.027,176.906 158.027,177.573 156.5,177.5C 156.973,176.094 157.973,175.427 159.5,175.5 Z M 390.5,180.5 C 390.027,181.906 389.027,182.573 387.5,182.5C 387.973,181.094 388.973,180.427 390.5,180.5 Z M 353.5,187.5 C 353.027,188.906 352.027,189.573 350.5,189.5C 350.973,188.094 351.973,187.427 353.5,187.5 Z M 157.5,213.5 C 155.577,213.795 153.91,214.628 152.5,216C 154.668,216.249 156.335,215.416 157.5,213.5 Z M 380.5,218.5 C 380.027,219.906 379.027,220.573 377.5,220.5C 377.973,219.094 378.973,218.427 380.5,218.5 Z M 401.5,249.5 C 401.027,250.906 400.027,251.573 398.5,251.5C 398.973,250.094 399.973,249.427 401.5,249.5 Z M 432.5,266.5 C 432.027,267.906 431.027,268.573 429.5,268.5C 429.973,267.094 430.973,266.427 432.5,266.5 Z M 439.5,352.5 C 436.5,355.833 433.5,359.167 430.5,362.5C 427.938,361.629 425.272,361.629 422.5,362.5C 427.994,358.918 433.661,355.585 439.5,352.5 Z"/></g>
<g><path style="opacity:0.882" fill="#72a852" d="M 283.5,111.5 C 277.23,114.639 271.23,118.306 265.5,122.5C 264.478,122.145 263.811,121.478 263.5,120.5C 268.938,117.947 274.271,115.113 279.5,112C 280.793,111.51 282.127,111.343 283.5,111.5 Z"/></g>
<g><path style="opacity:0.233" fill="#73ae51" d="M 184.5,135.5 C 182.299,136.566 179.965,137.233 177.5,137.5C 179.382,134.782 181.715,134.115 184.5,135.5 Z"/></g>
<g><path style="opacity:1" fill="#84c661" d="M 242.5,183.5 C 241.358,185.433 239.692,186.933 237.5,188C 215.741,200.101 194.241,212.601 173,225.5C 172.536,224.906 172.369,224.239 172.5,223.5C 178.715,212.243 186.048,201.743 194.5,192C 208.996,181.356 224.996,178.522 242.5,183.5 Z"/></g>
<g><path style="opacity:0.943" fill="#79b756" d="M 242.5,183.5 C 246.813,184.99 250.813,186.99 254.5,189.5C 225.647,205.178 197.147,221.511 169,238.5C 168.536,237.906 168.369,237.239 168.5,236.5C 175.131,232.525 181.464,228.191 187.5,223.5C 177.394,228.722 167.394,234.222 157.5,240C 154.502,240.891 151.836,240.391 149.5,238.5C 153.426,235.193 157.76,232.36 162.5,230C 161.584,229.722 160.918,229.222 160.5,228.5C 165.209,228.477 169.209,226.81 172.5,223.5C 172.369,224.239 172.536,224.906 173,225.5C 194.241,212.601 215.741,200.101 237.5,188C 239.692,186.933 241.358,185.433 242.5,183.5 Z M 190.5,221.5 C 190.027,222.906 189.027,223.573 187.5,223.5C 187.973,222.094 188.973,221.427 190.5,221.5 Z"/></g>
<g><path style="opacity:0.998" fill="#282a27" d="M 348.5,190.5 C 348.259,193.794 349.092,196.794 351,199.5C 356.105,206.469 362.939,210.469 371.5,211.5C 369.997,213.422 367.997,214.588 365.5,215C 352.328,215.66 342.495,210.16 336,198.5C 333.126,188.53 336.96,184.197 347.5,185.5C 347.216,187.415 347.549,189.081 348.5,190.5 Z"/></g>
<g><path style="opacity:0.989" fill="#87ca63" d="M 254.5,189.5 C 261.613,193.165 267.779,198.165 273,204.5C 277.867,210.401 282.367,216.567 286.5,223C 294.314,223.661 301.647,225.828 308.5,229.5C 281.833,247.833 255.167,266.167 228.5,284.5C 257.833,268.167 287.167,251.833 316.5,235.5C 328.201,244.551 335.034,256.551 337,271.5C 350.995,275.072 362.828,282.072 372.5,292.5C 372.67,293.822 372.337,294.989 371.5,296C 358.011,306.244 344.344,316.244 330.5,326C 346.535,317.477 362.535,308.644 378.5,299.5C 392.917,318.246 397.25,339.246 391.5,362.5C 356.691,362.571 322.024,362.571 287.5,362.5C 279.783,363.328 272.117,363.328 264.5,362.5C 273.013,356.409 281.346,350.076 289.5,343.5C 278.002,349.079 267.002,355.412 256.5,362.5C 248.473,363.437 240.473,363.437 232.5,362.5C 242.223,356.312 251.557,349.645 260.5,342.5C 249.329,348.584 238.329,354.917 227.5,361.5C 219.487,363.701 211.487,364.035 203.5,362.5C 206.473,360.853 209.14,358.853 211.5,356.5C 207.345,357.742 203.678,359.742 200.5,362.5C 181.14,362.82 161.807,362.82 142.5,362.5C 145.681,360.408 148.681,358.075 151.5,355.5C 147.164,357.332 143.164,359.665 139.5,362.5C 132.025,363.743 124.692,363.743 117.5,362.5C 120.473,360.853 123.14,358.853 125.5,356.5C 121.345,357.742 117.678,359.742 114.5,362.5C 107.006,363.544 99.6729,363.544 92.5,362.5C 113.167,348.833 133.833,335.167 154.5,321.5C 155.434,322.568 155.768,323.901 155.5,325.5C 165.753,327.033 169.586,322.699 167,312.5C 159.433,294.469 145.933,286.302 126.5,288C 124.445,288.687 122.779,289.854 121.5,291.5C 137.15,292.405 147.983,300.071 154,314.5C 154.495,316.473 154.662,318.473 154.5,320.5C 129.996,334.251 105.662,348.251 81.5,362.5C 73.7483,363.817 66.415,363.817 59.5,362.5C 52.3507,363.694 45.3507,363.694 38.5,362.5C 46.7949,357.526 54.7949,352.192 62.5,346.5C 53.2622,351.071 44.2622,356.071 35.5,361.5C 32.5434,354.804 31.5434,347.804 32.5,340.5C 34.2303,339.974 35.5637,338.974 36.5,337.5C 35.1667,337.833 33.8333,338.167 32.5,338.5C 32.8146,316.367 42.1479,299.2 60.5,287C 65.7857,283.849 71.4524,282.015 77.5,281.5C 71.8333,287.5 66.1667,293.5 60.5,299.5C 97.0016,279.326 133.002,258.326 168.5,236.5C 168.369,237.239 168.536,237.906 169,238.5C 197.147,221.511 225.647,205.178 254.5,189.5 Z M 154.5,320.5 C 154.5,320.833 154.5,321.167 154.5,321.5C 133.833,335.167 113.167,348.833 92.5,362.5C 88.9827,362.213 85.3161,362.213 81.5,362.5C 105.662,348.251 129.996,334.251 154.5,320.5 Z M 41.5,334.5 C 40.3406,336.25 38.674,337.25 36.5,337.5C 37.6594,335.75 39.326,334.75 41.5,334.5 Z M 292.5,341.5 C 292.027,342.906 291.027,343.573 289.5,343.5C 289.973,342.094 290.973,341.427 292.5,341.5 Z M 260.5,342.5 C 251.557,349.645 242.223,356.312 232.5,362.5C 230.585,362.784 228.919,362.451 227.5,361.5C 238.329,354.917 249.329,348.584 260.5,342.5 Z M 67.5,343.5 C 66.3406,345.25 64.674,346.25 62.5,346.5C 63.6594,344.75 65.326,343.75 67.5,343.5 Z M 289.5,343.5 C 281.346,350.076 273.013,356.409 264.5,362.5C 261.833,362.5 259.167,362.5 256.5,362.5C 267.002,355.412 278.002,349.079 289.5,343.5 Z M 130.5,353.5 C 129.341,355.25 127.674,356.25 125.5,356.5C 126.659,354.75 128.326,353.75 130.5,353.5 Z M 214.5,354.5 C 214.027,355.906 213.027,356.573 211.5,356.5C 211.973,355.094 212.973,354.427 214.5,354.5 Z M 151.5,355.5 C 148.681,358.075 145.681,360.408 142.5,362.5C 141.5,362.5 140.5,362.5 139.5,362.5C 143.164,359.665 147.164,357.332 151.5,355.5 Z M 125.5,356.5 C 123.14,358.853 120.473,360.853 117.5,362.5C 116.5,362.5 115.5,362.5 114.5,362.5C 117.678,359.742 121.345,357.742 125.5,356.5 Z M 211.5,356.5 C 209.14,358.853 206.473,360.853 203.5,362.5C 202.5,362.5 201.5,362.5 200.5,362.5C 203.678,359.742 207.345,357.742 211.5,356.5 Z"/></g>
<g><path style="opacity:1" fill="#4f6c3d" d="M 134.5,214.5 C 139.59,216.144 144.923,217.144 150.5,217.5C 144.833,217.5 139.167,217.5 133.5,217.5C 133.263,216.209 133.596,215.209 134.5,214.5 Z"/></g>
<g><path style="opacity:0.788" fill="#7baa53" d="M 121.5,218.5 C 120.7,220.741 119.034,221.741 116.5,221.5C 117.899,220.11 119.566,219.11 121.5,218.5 Z"/></g>
<g><path style="opacity:0.977" fill="#86c962" d="M 160.5,228.5 C 160.918,229.222 161.584,229.722 162.5,230C 157.76,232.36 153.426,235.193 149.5,238.5C 129.33,250.419 108.996,262.086 88.5,273.5C 89.9955,248.496 102.662,231.996 126.5,224C 138.456,221.029 149.79,222.529 160.5,228.5 Z M 121.5,232.5 C 124.589,231.261 127.589,229.761 130.5,228C 129.407,226.635 128.074,226.301 126.5,227C 124.627,228.704 122.96,230.537 121.5,232.5 Z"/></g>
<g><path style="opacity:0.988" fill="#7ab756" d="M 308.5,229.5 C 311.563,231.025 314.23,233.025 316.5,235.5C 287.167,251.833 257.833,268.167 228.5,284.5C 255.167,266.167 281.833,247.833 308.5,229.5 Z"/></g>
<g><path style="opacity:0.808" fill="#70a157" d="M 97.5,232.5 C 96.8333,233.833 95.8333,234.833 94.5,235.5C 94.5,233.5 95.5,232.5 97.5,232.5 Z"/></g>
<g><path style="opacity:1" fill="#282a27" d="M 235.5,235.5 C 241.456,234.875 246.789,236.375 251.5,240C 230.534,242.132 219.201,253.632 217.5,274.5C 206.227,275.338 202.727,270.338 207,259.5C 212.709,246.954 222.209,238.954 235.5,235.5 Z"/></g>
<g><path style="opacity:0.999" fill="#272827" d="M 406.5,272.5 C 425.79,272.051 438.956,280.717 446,298.5C 448.583,308.641 444.75,312.974 434.5,311.5C 432.818,290.651 421.485,279.151 400.5,277C 402.684,275.637 404.684,274.137 406.5,272.5 Z"/></g>
<g><path style="opacity:0.727" fill="#7db95f" d="M 75.5,274.5 C 75.3893,275.117 75.056,275.617 74.5,276C 70.8347,277.278 67.168,278.444 63.5,279.5C 67.0481,276.725 71.0481,275.059 75.5,274.5 Z"/></g>
<g><path style="opacity:0.996" fill="#282927" d="M 154.5,321.5 C 154.5,321.167 154.5,320.833 154.5,320.5C 154.662,318.473 154.495,316.473 154,314.5C 147.983,300.071 137.15,292.405 121.5,291.5C 122.779,289.854 124.445,288.687 126.5,288C 145.933,286.302 159.433,294.469 167,312.5C 169.586,322.699 165.753,327.033 155.5,325.5C 155.768,323.901 155.434,322.568 154.5,321.5 Z"/></g>
<g><path style="opacity:1" fill="#292a27" d="M 279.5,287.5 C 281.604,287.201 283.604,287.534 285.5,288.5C 288.661,298.996 293.994,308.163 301.5,316C 306.988,319.496 312.988,321.162 319.5,321C 320.956,321.423 321.456,322.256 321,323.5C 316.061,327.18 310.561,328.347 304.5,327C 290.791,321.956 280.957,312.79 275,299.5C 274.333,297.167 274.333,294.833 275,292.5C 276.366,290.638 277.866,288.972 279.5,287.5 Z"/></g>
<g><path style="opacity:0.929" fill="#79b35b" d="M 46.5,289.5 C 44.9095,291.633 42.9095,293.299 40.5,294.5C 41.6385,291.914 43.6385,290.247 46.5,289.5 Z"/></g>
<g><path style="opacity:0.94" fill="#7ab756" d="M 372.5,292.5 C 375.2,294.234 377.2,296.568 378.5,299.5C 362.535,308.644 346.535,317.477 330.5,326C 344.344,316.244 358.011,306.244 371.5,296C 372.337,294.989 372.67,293.822 372.5,292.5 Z"/></g>
<g><path style="opacity:0.725" fill="#8a5749" d="M 21.5,363.5 C 17.1938,367.25 12.1938,370.916 6.5,374.5C 6.33003,373.178 6.66337,372.011 7.5,371C 12.0616,368.22 16.7283,365.72 21.5,363.5 Z"/></g>
<g><path style="opacity:0.967" fill="#915c4b" d="M 431.5,367.5 C 428.833,371.5 426.167,375.5 423.5,379.5C 424.167,380.833 424.833,380.833 425.5,379.5C 425.833,379.5 426.167,379.5 426.5,379.5C 427.167,379.5 427.5,379.167 427.5,378.5C 427.833,378.5 428.167,378.5 428.5,378.5C 429.167,378.5 429.5,378.167 429.5,377.5C 430.605,376.4 431.938,375.733 433.5,375.5C 434.167,375.5 434.5,375.167 434.5,374.5C 435.833,373.833 437.167,373.167 438.5,372.5C 439.167,372.5 439.5,372.167 439.5,371.5C 439.833,371.5 440.167,371.5 440.5,371.5C 441.167,371.5 441.5,371.167 441.5,370.5C 442.71,370.068 443.71,369.401 444.5,368.5C 450.591,368.211 456.591,368.545 462.5,369.5C 460.833,371.5 459.167,373.5 457.5,375.5C 460.669,374.083 463.669,372.417 466.5,370.5C 476.142,370.061 485.142,372.228 493.5,377C 494.381,377.708 495.047,378.542 495.5,379.5C 491.148,383.795 491.482,384.795 496.5,382.5C 497.598,383.601 497.765,384.934 497,386.5C 495.224,389.941 493.057,393.108 490.5,396C 487.12,397.084 483.62,397.584 480,397.5C 476.979,397.498 474.146,397.164 471.5,396.5C 473.616,393.211 475.949,390.044 478.5,387C 472.143,389.347 466.143,392.513 460.5,396.5C 447.833,396.5 435.167,396.5 422.5,396.5C 423.833,394.833 425.167,393.167 426.5,391.5C 423.008,392.41 420.008,394.076 417.5,396.5C 410.833,396.5 404.167,396.5 397.5,396.5C 400.167,392.833 402.833,389.167 405.5,385.5C 398.903,388.775 392.57,392.442 386.5,396.5C 379.833,396.5 373.167,396.5 366.5,396.5C 369.075,393.681 371.408,390.681 373.5,387.5C 367.835,389.997 362.502,392.997 357.5,396.5C 350.691,397.732 344.024,397.732 337.5,396.5C 339.859,393.149 342.192,389.815 344.5,386.5C 338.661,389.585 332.994,392.918 327.5,396.5C 320.557,397.427 313.557,397.76 306.5,397.5C 309.122,393.543 312.122,389.876 315.5,386.5C 308.995,389.917 302.662,393.584 296.5,397.5C 290.167,397.5 283.833,397.5 277.5,397.5C 279.915,393.578 282.915,390.078 286.5,387C 286.167,386.833 285.833,386.667 285.5,386.5C 279.436,390.192 273.436,393.859 267.5,397.5C 260.691,398.732 254.024,398.732 247.5,397.5C 250.848,394.149 253.848,390.482 256.5,386.5C 249.329,390.251 242.329,394.251 235.5,398.5C 229.5,398.5 223.5,398.5 217.5,398.5C 220.5,394.5 223.5,390.5 226.5,386.5C 219.004,389.745 212.004,393.745 205.5,398.5C 199.5,398.5 193.5,398.5 187.5,398.5C 188.974,395.751 190.974,393.418 193.5,391.5C 189.164,393.332 185.164,395.665 181.5,398.5C 175.5,398.5 169.5,398.5 163.5,398.5C 165.451,395.214 167.785,392.214 170.5,389.5C 164.835,391.997 159.502,394.997 154.5,398.5C 148.31,398.823 142.31,398.49 136.5,397.5C 139.268,394.229 142.268,391.062 145.5,388C 139.143,390.347 133.143,393.513 127.5,397.5C 121.037,398.77 114.704,398.77 108.5,397.5C 110.962,394.536 113.629,391.703 116.5,389C 110.809,391.014 105.475,393.847 100.5,397.5C 94.31,397.823 88.31,397.49 82.5,396.5C 85.3285,392.216 87.8285,387.883 90,383.5C 83.5197,387.651 77.0197,391.651 70.5,395.5C 57.3284,396.332 44.3284,395.665 31.5,393.5C 33.7481,390.672 35.7481,387.672 37.5,384.5C 31.835,386.997 26.5016,389.997 21.5,393.5C 18.7081,393.548 16.8747,392.215 16,389.5C 13.1426,382.493 14.3092,376.326 19.5,371C 22.3508,369.711 25.3508,369.211 28.5,369.5C 27.7659,370.708 27.4326,372.041 27.5,373.5C 25.9925,375.181 24.9925,377.181 24.5,379.5C 26.4341,378.89 28.1007,377.89 29.5,376.5C 34.6352,375.014 39.3019,372.68 43.5,369.5C 49.1667,369.5 54.8333,369.5 60.5,369.5C 58.5879,371.657 56.9213,373.991 55.5,376.5C 54.5,378.5 53.5,380.5 52.5,382.5C 60.428,378.559 68.0947,374.226 75.5,369.5C 87.8333,369.5 100.167,369.5 112.5,369.5C 110.5,372.833 108.5,376.167 106.5,379.5C 105.71,380.794 104.71,381.961 103.5,383C 107.196,381.982 110.529,380.149 113.5,377.5C 114.492,377.672 115.158,377.338 115.5,376.5C 117.674,376.25 119.341,375.25 120.5,373.5C 121.492,373.672 122.158,373.338 122.5,372.5C 124.674,372.25 126.341,371.25 127.5,369.5C 133.833,369.5 140.167,369.5 146.5,369.5C 145.5,370.833 144.5,372.167 143.5,373.5C 142.167,375.167 140.833,376.833 139.5,378.5C 141.167,377.833 142.833,377.167 144.5,376.5C 148.836,374.668 152.836,372.335 156.5,369.5C 162.167,369.5 167.833,369.5 173.5,369.5C 170.363,372.299 168.029,375.632 166.5,379.5C 173.153,377.177 179.153,373.844 184.5,369.5C 190.167,369.5 195.833,369.5 201.5,369.5C 198.668,372.501 196.002,375.667 193.5,379C 199.857,376.653 205.857,373.487 211.5,369.5C 217.167,369.5 222.833,369.5 228.5,369.5C 226.372,372.13 224.039,374.63 221.5,377C 226.526,375.318 231.192,372.818 235.5,369.5C 241.5,369.5 247.5,369.5 253.5,369.5C 252.833,370.5 252.167,371.5 251.5,372.5C 249.122,374.878 247.122,377.545 245.5,380.5C 247.483,379.529 249.483,378.529 251.5,377.5C 256.5,375.336 261.167,372.669 265.5,369.5C 271.167,369.5 276.833,369.5 282.5,369.5C 281.287,372.225 279.454,374.559 277,376.5C 276.517,377.448 276.351,378.448 276.5,379.5C 275.817,380.644 276.151,380.644 277.5,379.5C 283.83,376.67 289.83,373.337 295.5,369.5C 300.87,369.392 306.203,369.725 311.5,370.5C 311.267,372.062 310.6,373.395 309.5,374.5C 308.542,375.962 307.376,377.295 306,378.5C 305.333,379.167 305.333,379.833 306,380.5C 308.052,378.942 310.219,377.608 312.5,376.5C 316.655,375.258 320.322,373.258 323.5,370.5C 329.5,370.5 335.5,370.5 341.5,370.5C 339.115,372.884 337.115,375.55 335.5,378.5C 335.5,379.167 335.833,379.5 336.5,379.5C 342.83,376.67 348.83,373.337 354.5,369.5C 360.167,369.5 365.833,369.5 371.5,369.5C 370.167,371.167 368.833,372.833 367.5,374.5C 366.585,376.754 365.252,378.754 363.5,380.5C 368.5,378.336 373.167,375.669 377.5,372.5C 380.912,371.958 383.912,370.625 386.5,368.5C 391.833,368.5 397.167,368.5 402.5,368.5C 400.091,370.902 398.091,373.569 396.5,376.5C 395.833,377.5 395.167,378.5 394.5,379.5C 401.332,376.588 407.666,372.921 413.5,368.5C 419.455,367.637 425.455,367.303 431.5,367.5 Z M 411.5,368.5 C 412.167,368.5 412.833,368.5 413.5,368.5C 407.666,372.921 401.332,376.588 394.5,379.5C 395.167,378.5 395.833,377.5 396.5,376.5C 401.632,374.1 406.632,371.434 411.5,368.5 Z M 67.5,369.5 C 70.1667,369.5 72.8333,369.5 75.5,369.5C 68.0947,374.226 60.428,378.559 52.5,382.5C 53.5,380.5 54.5,378.5 55.5,376.5C 59.8362,374.668 63.8362,372.335 67.5,369.5 Z M 125.5,369.5 C 126.167,369.5 126.833,369.5 127.5,369.5C 126.341,371.25 124.674,372.25 122.5,372.5C 123.306,371.272 124.306,370.272 125.5,369.5 Z M 377.5,372.5 C 373.167,375.669 368.5,378.336 363.5,380.5C 365.252,378.754 366.585,376.754 367.5,374.5C 370.423,373.705 373.09,372.372 375.5,370.5C 376.522,370.855 377.189,371.522 377.5,372.5 Z M 251.5,372.5 C 251.5,374.167 251.5,375.833 251.5,377.5C 249.483,378.529 247.483,379.529 245.5,380.5C 247.122,377.545 249.122,374.878 251.5,372.5 Z M 27.5,373.5 C 28.4013,374.29 29.0679,375.29 29.5,376.5C 28.1007,377.89 26.4341,378.89 24.5,379.5C 24.9925,377.181 25.9925,375.181 27.5,373.5 Z M 120.5,373.5 C 119.341,375.25 117.674,376.25 115.5,376.5C 116.659,374.75 118.326,373.75 120.5,373.5 Z M 143.5,373.5 C 144.404,374.209 144.737,375.209 144.5,376.5C 142.833,377.167 141.167,377.833 139.5,378.5C 140.833,376.833 142.167,375.167 143.5,373.5 Z M 312.5,376.5 C 310.219,377.608 308.052,378.942 306,380.5C 305.333,379.833 305.333,379.167 306,378.5C 307.376,377.295 308.542,375.962 309.5,374.5C 310.496,374.586 311.329,374.252 312,373.5C 312.483,374.448 312.649,375.448 312.5,376.5 Z M 113.5,377.5 C 110.529,380.149 107.196,381.982 103.5,383C 104.71,381.961 105.71,380.794 106.5,379.5C 108.921,379.122 111.254,378.455 113.5,377.5 Z M 82.5,396.5 C 78.4338,396.693 74.4338,396.36 70.5,395.5C 77.0197,391.651 83.5197,387.651 90,383.5C 87.8285,387.883 85.3285,392.216 82.5,396.5 Z M 37.5,384.5 C 35.7481,387.672 33.7481,390.672 31.5,393.5C 28.1667,393.5 24.8333,393.5 21.5,393.5C 26.5016,389.997 31.835,386.997 37.5,384.5 Z M 405.5,385.5 C 402.833,389.167 400.167,392.833 397.5,396.5C 393.833,396.5 390.167,396.5 386.5,396.5C 392.57,392.442 398.903,388.775 405.5,385.5 Z M 226.5,386.5 C 223.5,390.5 220.5,394.5 217.5,398.5C 213.5,398.5 209.5,398.5 205.5,398.5C 212.004,393.745 219.004,389.745 226.5,386.5 Z M 256.5,386.5 C 253.848,390.482 250.848,394.149 247.5,397.5C 243.566,398.36 239.566,398.693 235.5,398.5C 242.329,394.251 249.329,390.251 256.5,386.5 Z M 277.5,397.5 C 274.167,397.5 270.833,397.5 267.5,397.5C 273.436,393.859 279.436,390.192 285.5,386.5C 285.833,386.667 286.167,386.833 286.5,387C 282.915,390.078 279.915,393.578 277.5,397.5 Z M 315.5,386.5 C 312.122,389.876 309.122,393.543 306.5,397.5C 303.167,397.5 299.833,397.5 296.5,397.5C 302.662,393.584 308.995,389.917 315.5,386.5 Z M 344.5,386.5 C 342.192,389.815 339.859,393.149 337.5,396.5C 334.167,396.5 330.833,396.5 327.5,396.5C 332.994,392.918 338.661,389.585 344.5,386.5 Z M 471.5,396.5 C 467.833,396.5 464.167,396.5 460.5,396.5C 466.143,392.513 472.143,389.347 478.5,387C 475.949,390.044 473.616,393.211 471.5,396.5 Z M 136.5,397.5 C 133.5,397.5 130.5,397.5 127.5,397.5C 133.143,393.513 139.143,390.347 145.5,388C 142.268,391.062 139.268,394.229 136.5,397.5 Z M 373.5,387.5 C 371.408,390.681 369.075,393.681 366.5,396.5C 363.5,396.5 360.5,396.5 357.5,396.5C 362.502,392.997 367.835,389.997 373.5,387.5 Z M 108.5,397.5 C 105.833,397.5 103.167,397.5 100.5,397.5C 105.475,393.847 110.809,391.014 116.5,389C 113.629,391.703 110.962,394.536 108.5,397.5 Z M 170.5,389.5 C 167.785,392.214 165.451,395.214 163.5,398.5C 160.5,398.5 157.5,398.5 154.5,398.5C 159.502,394.997 164.835,391.997 170.5,389.5 Z M 193.5,391.5 C 190.974,393.418 188.974,395.751 187.5,398.5C 185.5,398.5 183.5,398.5 181.5,398.5C 185.164,395.665 189.164,393.332 193.5,391.5 Z M 426.5,391.5 C 425.167,393.167 423.833,394.833 422.5,396.5C 420.833,396.5 419.167,396.5 417.5,396.5C 420.008,394.076 423.008,392.41 426.5,391.5 Z"/></g>
<g><path style="opacity:0.824" fill="#76aa53" d="M 411.5,368.5 C 406.632,371.434 401.632,374.1 396.5,376.5C 398.091,373.569 400.091,370.902 402.5,368.5C 405.5,367.167 408.5,367.167 411.5,368.5 Z"/></g>
<g><path style="opacity:0.91" fill="#76af53" d="M 431.5,367.5 C 436.032,367.182 440.366,367.515 444.5,368.5C 443.71,369.401 442.71,370.068 441.5,370.5C 440.833,370.5 440.5,370.833 440.5,371.5C 440.167,371.5 439.833,371.5 439.5,371.5C 438.833,371.5 438.5,371.833 438.5,372.5C 437.167,373.167 435.833,373.833 434.5,374.5C 433.833,374.5 433.5,374.833 433.5,375.5C 431.938,375.733 430.605,376.4 429.5,377.5C 428.833,377.5 428.5,377.833 428.5,378.5C 428.167,378.5 427.833,378.5 427.5,378.5C 426.833,378.5 426.5,378.833 426.5,379.5C 426.167,379.5 425.833,379.5 425.5,379.5C 424.833,379.5 424.167,379.5 423.5,379.5C 426.167,375.5 428.833,371.5 431.5,367.5 Z"/></g>
<g><path style="opacity:0.988" fill="#88c863" d="M 28.5,369.5 C 33.5,369.5 38.5,369.5 43.5,369.5C 39.3019,372.68 34.6352,375.014 29.5,376.5C 29.0679,375.29 28.4013,374.29 27.5,373.5C 27.4326,372.041 27.7659,370.708 28.5,369.5 Z"/></g>
<g><path style="opacity:0.888" fill="#89c762" d="M 60.5,369.5 C 62.8333,369.5 65.1667,369.5 67.5,369.5C 63.8362,372.335 59.8362,374.668 55.5,376.5C 56.9213,373.991 58.5879,371.657 60.5,369.5 Z"/></g>
<g><path style="opacity:0.891" fill="#89cb63" d="M 112.5,369.5 C 116.833,369.5 121.167,369.5 125.5,369.5C 124.306,370.272 123.306,371.272 122.5,372.5C 121.508,372.328 120.842,372.662 120.5,373.5C 118.326,373.75 116.659,374.75 115.5,376.5C 114.508,376.328 113.842,376.662 113.5,377.5C 111.254,378.455 108.921,379.122 106.5,379.5C 108.5,376.167 110.5,372.833 112.5,369.5 Z"/></g>
<g><path style="opacity:0.965" fill="#88c662" d="M 146.5,369.5 C 149.833,369.5 153.167,369.5 156.5,369.5C 152.836,372.335 148.836,374.668 144.5,376.5C 144.737,375.209 144.404,374.209 143.5,373.5C 144.5,372.167 145.5,370.833 146.5,369.5 Z"/></g>
<g><path style="opacity:1" fill="#88c662" d="M 173.5,369.5 C 177.167,369.5 180.833,369.5 184.5,369.5C 179.153,373.844 173.153,377.177 166.5,379.5C 168.029,375.632 170.363,372.299 173.5,369.5 Z"/></g>
<g><path style="opacity:0.989" fill="#89c462" d="M 201.5,369.5 C 204.833,369.5 208.167,369.5 211.5,369.5C 205.857,373.487 199.857,376.653 193.5,379C 196.002,375.667 198.668,372.501 201.5,369.5 Z"/></g>
<g><path style="opacity:1" fill="#89c261" d="M 228.5,369.5 C 230.833,369.5 233.167,369.5 235.5,369.5C 231.192,372.818 226.526,375.318 221.5,377C 224.039,374.63 226.372,372.13 228.5,369.5 Z"/></g>
<g><path style="opacity:0.95" fill="#8ac962" d="M 253.5,369.5 C 257.5,369.5 261.5,369.5 265.5,369.5C 261.167,372.669 256.5,375.336 251.5,377.5C 251.5,375.833 251.5,374.167 251.5,372.5C 252.167,371.5 252.833,370.5 253.5,369.5 Z"/></g>
<g><path style="opacity:0.982" fill="#88c763" d="M 282.5,369.5 C 286.833,369.5 291.167,369.5 295.5,369.5C 289.83,373.337 283.83,376.67 277.5,379.5C 277.167,379.5 276.833,379.5 276.5,379.5C 276.351,378.448 276.517,377.448 277,376.5C 279.454,374.559 281.287,372.225 282.5,369.5 Z"/></g>
<g><path style="opacity:0.867" fill="#7cb356" d="M 386.5,368.5 C 383.912,370.625 380.912,371.958 377.5,372.5C 377.189,371.522 376.522,370.855 375.5,370.5C 373.09,372.372 370.423,373.705 367.5,374.5C 368.833,372.833 370.167,371.167 371.5,369.5C 376.305,368.513 381.305,368.179 386.5,368.5 Z"/></g>
<g><path style="opacity:0.892" fill="#88c763" d="M 311.5,370.5 C 315.5,370.5 319.5,370.5 323.5,370.5C 320.322,373.258 316.655,375.258 312.5,376.5C 312.649,375.448 312.483,374.448 312,373.5C 311.329,374.252 310.496,374.586 309.5,374.5C 310.6,373.395 311.267,372.062 311.5,370.5 Z"/></g>
<g><path style="opacity:0.972" fill="#83be5f" d="M 354.5,369.5 C 348.83,373.337 342.83,376.67 336.5,379.5C 335.833,379.5 335.5,379.167 335.5,378.5C 337.115,375.55 339.115,372.884 341.5,370.5C 345.735,369.564 350.069,369.231 354.5,369.5 Z"/></g>
<g><path style="opacity:0.8" fill="#915b4c" d="M 28.5,401.5 C 31.4824,401.963 34.4824,402.296 37.5,402.5C 35.2046,404.385 32.538,404.885 29.5,404C 28.7476,403.329 28.4142,402.496 28.5,401.5 Z"/></g>
<g><path style="opacity:1" fill="#815445" d="M 247.5,403.5 C 250.5,402.167 253.5,402.167 256.5,403.5C 253.5,404.833 250.5,404.833 247.5,403.5 Z"/></g>
</svg>
